<svg width="159" height="29" viewBox="0 0 159 29" fill="none" xmlns="http://www.w3.org/2000/svg">
<mask id="mask0_2_53" style="mask-type:luminance" maskUnits="userSpaceOnUse" x="0" y="-1" width="30" height="30">
<path d="M3.01008 17.9947C2.07246 17.6622 1.13018 17.422 0.196342 17.2635C0.478787 18.7603 1.00047 20.2389 1.78557 21.6447C4.07874 25.7507 8.07826 28.329 12.4255 29C12.2673 24.502 8.58421 19.9725 3.01008 17.9947ZM3.54096 13.4331C10.8993 12.798 16.5629 7.12353 17.2455 0.224006C14.0398 -0.337637 10.6266 0.140441 7.55541 1.82041C3.0928 4.26159 0.412598 8.65597 0 13.3317C1.14805 13.4962 2.33344 13.5373 3.54096 13.4331ZM14.701 17.9542C14.5128 22.0046 15.8042 25.7824 18.1009 28.7784C19.3695 28.4787 20.6192 28.0102 21.8164 27.3554C28.941 23.458 31.5242 14.5823 27.5861 7.5311C26.7378 6.01207 25.655 4.70307 24.4086 3.62078C18.9174 6.15724 14.9986 11.5479 14.701 17.9542Z" fill="white"/>
</mask>
<g mask="url(#mask0_2_53)">
<path d="M3.01008 17.9947C2.07246 17.6622 1.13018 17.422 0.196342 17.2635C0.478787 18.7603 1.00047 20.2389 1.78557 21.6447C4.07874 25.7507 8.07826 28.329 12.4255 29C12.2673 24.502 8.58421 19.9725 3.01008 17.9947ZM3.54096 13.4331C10.8993 12.798 16.5629 7.12353 17.2455 0.224006C14.0398 -0.337637 10.6266 0.140441 7.55541 1.82041C3.0928 4.26159 0.412598 8.65597 0 13.3317C1.14805 13.4962 2.33344 13.5373 3.54096 13.4331ZM14.701 17.9542C14.5128 22.0046 15.8042 25.7824 18.1009 28.7784C19.3695 28.4787 20.6192 28.0102 21.8164 27.3554C28.941 23.458 31.5242 14.5823 27.5861 7.5311C26.7378 6.01207 25.655 4.70307 24.4086 3.62078C18.9174 6.15724 14.9986 11.5479 14.701 17.9542Z" fill="url(#paint0_linear_2_53)"/>
</g>
<path d="M78.0567 26.4214H82.3064V2.11739H78.0567V26.4214Z" fill="white"/>
<path d="M95.1305 8.77691C93.0153 8.77691 90.991 9.56707 89.6845 11.6754V9.14631H85.8588V26.4215H89.9503V17.2712C89.9503 16.5553 90.0145 15.8704 90.1426 15.369C90.6133 13.5057 91.9545 12.4235 93.9292 12.4235C95.9691 12.4235 97.1448 13.4343 97.5229 15.4548C97.6138 15.9379 97.6576 16.6267 97.6576 17.2678V26.4215H101.75V16.199C101.75 15.0518 101.634 14.0152 101.364 13.1302C100.476 10.1944 98.1051 8.77691 95.1305 8.77691Z" fill="white"/>
<path d="M115.42 22.4646C114.976 22.5682 114.235 22.6067 113.756 22.6067H109.052V15.754H114.112C114.566 15.754 115.085 15.7991 115.451 15.8804C117.441 16.3171 118.203 17.8703 118.203 19.1754C118.203 20.9019 117.082 22.0772 115.42 22.4646ZM109.052 5.93255H112.825C113.686 5.93255 114.6 6.05001 115.187 6.31805C116.212 6.78487 116.764 7.65757 116.764 8.96916C116.764 10.2871 116.175 11.1878 115.132 11.6519C114.609 11.884 113.847 12.0068 112.965 12.0068H112.159H109.052V5.93255ZM118.608 13.4319C120.27 12.1693 120.968 10.721 120.968 8.65201C120.968 5.5556 119.029 3.23346 116.074 2.44252C115.307 2.238 114.061 2.11795 112.61 2.11795H104.848V26.4214H113.542C115.236 26.4214 116.372 26.2617 117.485 25.8733C120.398 24.8555 122.408 22.6168 122.408 19.332C122.408 16.5893 121.09 14.6362 118.608 13.4319Z" fill="white"/>
<path d="M154.611 9.14609L150.24 21.4874L145.805 9.14609H141.372L148.304 26.4214H152.081L159 9.14609H154.611Z" fill="white"/>
<path d="M127.984 16.425C128.277 13.9389 130.314 12.3046 132.789 12.3046C135.39 12.3046 137.366 14.008 137.658 16.425H127.984ZM132.752 8.77714C127.784 8.77714 123.922 12.7342 123.922 17.905C123.922 22.6779 127.724 26.7906 132.926 26.7906C136.726 26.7906 139.668 24.627 141.172 21.1223H137.01C136.072 22.5098 134.816 23.2629 132.995 23.2629C130.284 23.2629 128.51 21.6842 127.971 19.2551H141.594C141.696 18.6804 141.725 18.1985 141.718 17.6144C141.673 12.9713 138.076 8.77714 132.752 8.77714Z" fill="white"/>
<path d="M67.2739 22.6037H62.2162V15.6179C62.8574 15.5912 63.4864 15.5769 64.0944 15.5841C68.6937 15.643 71.3696 16.9679 71.3697 19.3256C71.3697 21.4475 69.4527 22.6037 67.2739 22.6037ZM62.2162 5.93255H65.8231C66.6471 5.93255 67.3377 6.02535 67.8109 6.17806C69.1811 6.6201 69.9283 7.64146 69.9283 9.28855C69.9283 10.8133 69.1527 11.8154 67.9216 12.2763C66.7499 12.0792 65.4397 11.9711 63.9781 11.9698C63.43 11.9694 62.827 11.978 62.2162 11.997V5.93255ZM39.4473 20.9014L44.9033 6.92418L48.0773 15.3042C44.7936 16.7945 41.8663 18.707 39.4473 20.9014ZM71.7362 13.4659C73.5063 12.1844 74.1326 10.2679 74.1326 8.65202C74.1326 5.5556 72.1934 3.23347 69.2388 2.4423C68.4717 2.23801 67.2259 2.11795 65.7746 2.11795H58.0122V12.3729C55.8453 12.6977 53.7493 13.205 51.7484 13.8672L46.9031 2.11716H46.7797H43.0825H43.0035L32.9813 26.4214H37.0706C40.6041 22.7239 44.8228 20.0707 49.2161 18.3106L52.2882 26.4214H56.9253L53.0441 17.0091C54.7054 16.5409 56.3693 16.1928 58.0122 15.9558V26.4214L60.1223 26.4233L60.1216 26.4274H67.5321C72.7686 26.4274 75.5778 23.387 75.5778 19.3335C75.5778 16.8751 74.3477 14.7855 71.7362 13.4659Z" fill="white"/>
<defs>
<linearGradient id="paint0_linear_2_53" x1="0" y1="14.4998" x2="29.4284" y2="14.4998" gradientUnits="userSpaceOnUse">
<stop stop-color="#828282"/>
<stop offset="1" stop-color="#ABABAB"/>
</linearGradient>
</defs>
</svg>
