<svg xmlns="http://www.w3.org/2000/svg" width="109" height="30" fill="none"><path d="M 17.6 21.8 C 17.6 21.4 17.3 21.2 17 21.2 C 16.4 21.2 15.6 21.3 15 21.3 C 11.6 21.3 8.8 18.5 8.8 15.1 L 8.8 1.4 L 8.8 0.2 C 8.8 0.1 8.7 0 8.6 0 L 0.1 0 L 0 0.1 L 0 15 C 0 23.3 6.7 30 15 30 C 15.8 30 16.6 29.9 17.4 29.8 C 17.5 29.8 17.6 29.7 17.6 29.6 Z" fill="rgb(255,255,255)"></path><path d="M 15 0 C 14.2 0 13.3 0.1 12.5 0.2 C 12.4 0.2 12.3 0.3 12.3 0.4 L 12.3 8.2 C 12.3 8.6 12.6 8.9 12.9 8.8 C 13.2 8.8 14.9 8.7 14.9 8.7 C 18.3 8.7 21.1 11.5 21.1 14.9 L 21.1 28.4 C 21.1 28.5 21.2 28.5 21.2 28.5 C 26.4 26.2 30 21 30 15 C 30 6.7 23.3 0 15 0 Z" fill="rgb(255,255,255)"></path><path d="M 63.2 6.2 L 63.2 2.2 L 58.4 2.6 L 58.4 6.3 L 63.2 6.3 Z M 72 4.9 L 67.4 5.3 L 67.4 20.6 C 67.4 23.6 68.8 25.4 72.3 25.4 C 73.8 25.4 74.9 25.1 76 24.7 L 76 21 C 75 21.4 74.2 21.5 73.3 21.5 C 72.5 21.5 72.1 21.1 72.1 20.3 L 72.1 12.7 L 76 12.7 L 76 8.9 L 72 8.9 Z M 58.4 25.1 L 63.2 25.1 L 63.2 8.9 L 58.4 8.9 Z M 49.3 21.6 C 48.7 21.8 47.6 21.8 46.7 21.8 C 45.2 21.8 43.9 21.8 43.1 21.7 L 43.1 17 L 46.6 17 C 49.1 17 50.2 17.7 50.2 19.4 C 50.1 20.3 49.8 21 49.3 21.6 Z M 43 8.8 C 43.8 8.8 44.8 8.7 45.9 8.7 C 48.5 8.7 49.6 9.5 49.6 11.1 C 49.6 12 49.2 12.7 48.4 13.3 C 47.7 13.4 46.9 13.5 46 13.5 C 44.9 13.5 43.8 13.5 43 13.4 Z M 51.8 14.7 C 53.3 13.8 54.6 12.4 54.6 10.3 C 54.6 6.8 51.9 4.9 46.2 4.9 L 38.1 4.9 L 38.1 25.1 L 47.5 25.1 C 52.5 25.1 55.1 23.2 55.1 19.4 C 55.1 16.9 53.7 15.5 51.8 14.7 Z M 86 15.5 C 83.6 15.1 83 14.8 83 14.1 C 83 13.7 83.1 13.4 83.3 13.2 C 83.9 13 84.9 12.9 85.8 12.9 C 87.7 12.9 89.4 13.2 90.8 13.6 L 90.8 9.7 C 89.7 9.1 87.9 8.6 85.4 8.6 C 81.2 8.6 78.5 10.6 78.5 14 C 78.5 17.3 80.4 18.3 84 18.9 C 86.6 19.4 87.2 19.7 87.2 20.5 C 87.2 20.9 87.1 21.1 87 21.3 C 86.4 21.5 85.4 21.7 84.1 21.7 C 82.3 21.7 80.2 21.3 79 20.9 L 79 24.6 C 80.3 25.1 82.4 25.4 84.3 25.4 C 88.8 25.4 91.7 24 91.7 20.4 C 91.7 17.3 89.8 16.2 86 15.5 Z M 103.3 21.2 C 102.7 21.6 102 21.8 101.1 21.8 C 99.2 21.8 98.1 20.2 98.1 17.4 C 98.1 15.8 98.4 14.4 99 13.7 C 99.6 13.2 100.3 13 101.2 13 C 103.2 13 104.1 14.6 104.1 17 C 104.2 18.7 103.9 20.2 103.3 21.2 Z M 101.5 8.6 C 96 8.6 93.5 12.3 93.5 17.4 C 93.5 22.4 96.4 25.4 101 25.4 C 106.5 25.4 108.9 21.7 108.9 16.7 C 108.9 11.7 106.1 8.6 101.5 8.6 Z" fill="rgb(255,255,255)"></path></svg>
