<svg xmlns="http://www.w3.org/2000/svg" width="156.735" height="31.971" fill="none" overflow="visible"><path d="M 144.151 11.695 L 146.888 11.695 L 146.888 13.681 C 147.387 12.964 148.053 12.381 148.828 11.98 C 149.597 11.583 150.453 11.383 151.318 11.398 C 152.364 11.398 153.3 11.643 154.113 12.126 C 154.934 12.61 155.566 13.316 156.038 14.26 C 156.502 15.197 156.735 16.32 156.735 17.651 L 156.735 25.799 L 153.954 25.799 L 153.954 17.807 C 153.954 16.914 153.794 16.171 153.475 15.576 C 153.201 15.016 152.766 14.549 152.226 14.238 C 151.681 13.945 151.071 13.797 150.454 13.807 C 149.8 13.807 149.205 13.955 148.682 14.253 C 148.152 14.536 147.731 14.989 147.411 15.599 C 147.07 16.302 146.906 17.078 146.932 17.859 L 146.932 25.799 L 144.151 25.799 Z M 132.969 11.443 C 134.013 11.424 135.046 11.664 135.975 12.141 C 136.816 12.582 137.537 13.223 138.073 14.008 L 138.073 11.703 L 140.847 11.703 L 140.847 25.799 L 138.117 25.799 L 138.117 23.442 L 138.073 23.517 C 137.549 24.292 136.84 24.926 136.011 25.361 C 135.07 25.848 134.022 26.093 132.962 26.075 C 131.734 26.09 130.525 25.783 129.454 25.182 C 128.397 24.581 127.533 23.691 126.964 22.617 C 126.339 21.429 126.027 20.101 126.056 18.759 C 126.056 17.301 126.361 16.007 126.964 14.9 C 127.534 13.828 128.398 12.941 129.454 12.342 C 130.527 11.74 131.739 11.433 132.969 11.45 L 132.969 11.443 Z M 133.521 13.986 C 132.606 13.986 131.793 14.194 131.081 14.602 C 130.383 15.003 129.81 15.59 129.425 16.297 C 129.022 17.054 128.82 17.901 128.837 18.759 C 128.837 19.68 129.033 20.498 129.425 21.212 C 129.825 21.941 130.369 22.506 131.081 22.922 C 131.793 23.331 132.606 23.532 133.521 23.532 C 134.436 23.532 135.242 23.331 135.939 22.915 C 136.631 22.511 137.199 21.924 137.58 21.219 C 137.972 20.498 138.16 19.68 138.16 18.766 C 138.16 17.836 137.972 17.019 137.58 16.297 C 137.199 15.592 136.631 15.006 135.939 14.602 C 135.204 14.181 134.368 13.968 133.521 13.985 Z M 122.2 8.855 C 121.714 8.855 121.314 8.707 120.995 8.387 C 120.839 8.231 120.717 8.045 120.636 7.839 C 120.554 7.633 120.516 7.412 120.523 7.19 C 120.523 6.692 120.668 6.29 120.98 5.978 C 121.142 5.822 121.334 5.701 121.545 5.621 C 121.754 5.542 121.977 5.506 122.2 5.517 C 122.708 5.517 123.115 5.666 123.42 5.978 C 123.732 6.29 123.885 6.692 123.885 7.19 C 123.885 7.673 123.725 8.074 123.406 8.387 C 123.093 8.707 122.687 8.862 122.2 8.862 Z M 120.799 11.695 L 123.587 11.695 L 123.587 25.799 L 120.799 25.799 Z M 117.357 5.167 L 117.357 25.799 L 114.62 25.799 L 114.62 23.42 C 114.145 24.15 113.509 24.76 112.761 25.205 C 111.767 25.796 110.628 26.098 109.471 26.075 C 108.242 26.092 107.029 25.784 105.957 25.182 C 104.903 24.58 104.041 23.691 103.474 22.617 C 102.849 21.429 102.537 20.101 102.566 18.759 C 102.566 17.301 102.864 16.007 103.474 14.9 C 104.042 13.829 104.904 12.942 105.957 12.342 C 107.029 11.74 108.242 11.433 109.471 11.45 C 110.706 11.45 111.795 11.733 112.739 12.305 C 113.471 12.751 114.097 13.349 114.576 14.06 L 114.576 5.167 Z M 110.023 13.978 C 109.108 13.978 108.302 14.187 107.591 14.595 C 106.893 14.996 106.32 15.583 105.935 16.29 C 105.53 17.047 105.325 17.894 105.34 18.752 C 105.34 19.673 105.543 20.491 105.935 21.205 C 106.334 21.934 106.879 22.499 107.591 22.915 C 108.302 23.324 109.116 23.525 110.03 23.525 C 110.938 23.525 111.744 23.324 112.448 22.908 C 113.138 22.503 113.703 21.916 114.082 21.212 C 114.474 20.491 114.678 19.673 114.678 18.759 C 114.678 17.829 114.474 17.012 114.082 16.29 C 113.703 15.586 113.138 15 112.448 14.595 C 111.713 14.174 110.878 13.961 110.03 13.978 Z M 98.71 8.848 C 98.224 8.848 97.817 8.7 97.505 8.38 C 97.347 8.225 97.224 8.039 97.142 7.833 C 97.059 7.627 97.02 7.405 97.026 7.183 C 97.026 6.685 97.186 6.283 97.49 5.971 C 97.652 5.815 97.844 5.693 98.055 5.614 C 98.264 5.535 98.487 5.499 98.71 5.51 C 99.219 5.51 99.618 5.659 99.93 5.971 C 100.235 6.283 100.388 6.685 100.388 7.183 C 100.388 7.666 100.235 8.067 99.916 8.38 C 99.596 8.7 99.197 8.856 98.71 8.856 Z M 97.309 11.688 L 100.09 11.688 L 100.09 25.8 L 97.309 25.8 L 97.309 11.688 Z M 89.467 25.792 L 86.679 25.792 L 86.679 11.695 L 89.459 11.695 L 89.459 13.792 C 89.905 13.064 90.517 12.452 91.246 12.008 C 92.042 11.567 92.943 11.351 93.853 11.383 C 94.361 11.383 94.891 11.457 95.45 11.606 L 95.45 14.245 C 94.789 14.104 94.23 14.037 93.78 14.037 C 92.626 13.988 91.5 14.406 90.658 15.197 C 89.859 15.97 89.459 17.167 89.459 18.781 L 89.467 25.792 Z M 73.884 21.391 C 74.247 22.112 74.777 22.655 75.46 23.027 C 76.135 23.398 76.941 23.577 77.871 23.577 C 78.742 23.577 79.468 23.421 80.049 23.101 C 80.63 22.781 81.211 22.283 81.806 21.614 L 83.796 23.19 C 83.17 24.148 82.29 24.912 81.254 25.398 C 80.23 25.874 79.054 26.119 77.747 26.119 C 76.222 26.119 74.93 25.822 73.848 25.212 C 72.791 24.642 71.93 23.766 71.379 22.699 C 70.804 21.535 70.52 20.249 70.551 18.952 C 70.551 17.487 70.842 16.179 71.423 15.026 C 71.971 13.915 72.828 12.986 73.891 12.349 C 75.006 11.694 76.28 11.36 77.573 11.383 C 78.967 11.383 80.165 11.71 81.175 12.349 C 82.168 12.976 82.958 13.877 83.447 14.944 C 83.955 16.037 84.217 17.264 84.217 18.61 L 84.217 19.755 L 73.376 19.755 C 73.463 20.372 73.63 20.922 73.877 21.398 L 73.884 21.39 Z M 77.711 13.859 C 76.774 13.859 75.983 14.067 75.329 14.491 C 74.669 14.917 74.149 15.527 73.833 16.246 C 73.63 16.692 73.492 17.175 73.405 17.703 L 81.458 17.703 C 81.416 17.131 81.294 16.568 81.095 16.03 C 80.857 15.382 80.423 14.823 79.853 14.432 C 79.213 14.029 78.466 13.829 77.711 13.859 Z M 48.826 6.543 L 51.004 6.543 L 58.396 15.778 L 65.657 6.543 L 67.836 6.543 L 67.836 25.8 L 65.076 25.8 L 65.076 11.733 L 58.324 19.926 L 51.578 11.673 L 51.578 25.8 L 48.819 25.8 L 48.819 6.543 Z M 15.612 0 C 16.586 0.001 17.559 0.093 18.516 0.276 L 18.516 31.695 C 16.84 32.017 15.122 32.058 13.433 31.814 L 13.433 0.157 C 14.154 0.052 14.883 -0.001 15.612 0 Z M 12.344 0.35 L 12.344 31.621 C 10.535 31.225 8.813 30.505 7.261 29.494 L 7.261 2.476 C 8.813 1.466 10.535 0.746 12.344 0.35 Z M 19.605 0.529 C 22.939 1.428 25.888 3.432 27.992 6.228 C 30.097 9.024 31.238 12.455 31.238 15.985 C 31.238 19.515 30.097 22.946 27.992 25.742 C 25.888 28.538 22.939 30.543 19.605 31.443 L 19.605 0.528 Z M 6.172 3.25 L 6.172 28.721 C 4.244 27.221 2.688 25.296 1.625 23.096 C 0.552 20.879 -0.003 18.448 0 15.985 C 0 10.789 2.418 6.172 6.172 3.249 Z" fill="rgb(255,255,255)"></path></svg>
