<svg width="134" height="29" viewBox="0 0 134 29" fill="none" xmlns="http://www.w3.org/2000/svg">
<path d="M105.53 9.19804C105.228 9.19804 104.929 9.13854 104.65 9.02296C104.371 8.90737 104.117 8.73796 103.904 8.52438C103.69 8.31081 103.521 8.05726 103.405 7.77821C103.29 7.49916 103.23 7.20008 103.23 6.89804C103.23 6.596 103.29 6.29691 103.405 6.01786C103.521 5.73881 103.69 5.48526 103.904 5.27169C104.117 5.05811 104.371 4.8887 104.65 4.77311C104.929 4.65753 105.228 4.59803 105.53 4.59803C105.833 4.59537 106.133 4.65304 106.413 4.76768C106.694 4.88232 106.948 5.05163 107.162 5.26574C107.377 5.47985 107.546 5.73446 107.66 6.01472C107.775 6.29497 107.833 6.59525 107.83 6.89804C107.827 7.50722 107.584 8.09071 107.154 8.52147C106.723 8.95224 106.139 9.1954 105.53 9.19804ZM40.6701 23.998H44.7501L45.2301 11.738L49.3601 19.008H51.5701L55.4801 11.648L56.0201 23.998H60.2901L59.4201 5.10803H55.3401L50.5201 13.968L45.6001 5.10803H41.6001L40.6701 23.998ZM73.4901 19.998C73.0351 20.3073 72.5531 20.5751 72.0501 20.798C71.2353 21.143 70.3543 21.3035 69.4701 21.268C68.5525 21.3211 67.6476 21.0326 66.9301 20.458C66.6453 20.2326 66.4135 19.9474 66.2511 19.6225C66.0887 19.2977 65.9996 18.9411 65.9901 18.578H75.4401V17.898C75.4505 16.8597 75.309 15.8254 75.0201 14.828C74.7701 13.9467 74.3412 13.1263 73.7601 12.418C73.2013 11.7495 72.5012 11.2133 71.7101 10.848C70.8166 10.4523 69.8471 10.2577 68.8701 10.278C67.8799 10.2655 66.8983 10.4632 65.9901 10.858C65.1767 11.2165 64.446 11.7391 63.8437 12.3929C63.2415 13.0468 62.7807 13.8179 62.4901 14.658C62.1792 15.5139 62.0201 16.4175 62.0201 17.328C62.01 18.3202 62.1794 19.3061 62.5201 20.238C62.8289 21.0848 63.3205 21.853 63.9601 22.488C64.6207 23.1294 65.4073 23.6265 66.2701 23.948C67.2489 24.3102 68.2867 24.4865 69.3301 24.468C70.0903 24.4777 70.8489 24.3971 71.5901 24.228C72.1777 24.0925 72.753 23.9086 73.3101 23.678C73.722 23.5074 74.1143 23.2928 74.4801 23.038C74.7801 22.818 75.0101 22.668 75.1601 22.568L73.4901 19.998ZM65.9901 15.998C65.993 15.6991 66.0541 15.4036 66.1701 15.128C66.2955 14.8283 66.4791 14.5564 66.7101 14.328C66.9618 14.0658 67.2648 13.8582 67.6001 13.718C67.9948 13.5495 68.4211 13.4677 68.8501 13.478C69.2662 13.4674 69.6795 13.5494 70.0601 13.718C70.3823 13.8609 70.6716 14.0686 70.9101 14.328C71.1323 14.5576 71.3058 14.8297 71.4201 15.128C71.5332 15.4041 71.5909 15.6997 71.5901 15.998H65.9901ZM89.2801 23.998H101.7V20.498H93.5501V5.10803H89.2801V23.998ZM103.49 23.998H107.57V10.718H103.49V23.998ZM121.41 5.99803C120.829 5.4979 120.147 5.12946 119.41 4.91803C118.702 4.71292 117.968 4.60857 117.23 4.60803C116.55 4.60865 115.874 4.72011 115.23 4.93803C114.569 5.14477 113.96 5.48977 113.443 5.95012C112.925 6.41047 112.512 6.97563 112.23 7.60803C111.9 8.37814 111.74 9.21038 111.76 10.048V10.728H109.61V13.928H111.76V23.998H115.81V13.918H118.96V10.718H115.81V9.97804C115.774 9.42104 115.957 8.87201 116.32 8.44804C116.496 8.26731 116.708 8.12578 116.942 8.03272C117.177 7.93966 117.428 7.89717 117.68 7.90803C118.02 7.91423 118.357 7.97154 118.68 8.07803C119.011 8.19341 119.324 8.35501 119.61 8.55804L121.41 5.99803ZM86.1101 20.458C85.8433 20.6484 85.5586 20.8125 85.2601 20.948C84.9222 21.1045 84.5523 21.1798 84.1801 21.168C83.952 21.1844 83.7234 21.1447 83.5142 21.0523C83.305 20.9599 83.1216 20.8177 82.9801 20.638C82.7027 20.1962 82.5699 19.6789 82.6001 19.158V13.918H86.0301V10.718H82.6001V7.15803H78.5201V10.718H76.4201V13.918H78.5201V18.918C78.5139 19.6792 78.6012 20.4382 78.7801 21.178C78.9293 21.8175 79.2197 22.4154 79.6301 22.928C80.0396 23.4452 80.5726 23.851 81.1801 24.108C81.9386 24.4004 82.7475 24.5397 83.5601 24.518C85.0922 24.5106 86.5738 23.9696 87.7501 22.988L86.1101 20.458ZM131.24 19.978C130.785 20.2873 130.303 20.5551 129.8 20.778C128.985 21.123 128.104 21.2835 127.22 21.248C126.306 21.3005 125.404 21.0119 124.69 20.438C124.395 20.2181 124.152 19.9354 123.979 19.6103C123.806 19.2852 123.707 18.9258 123.69 18.558H133.15V17.878C133.162 16.8389 133.017 15.8038 132.72 14.808C132.47 13.9267 132.041 13.1063 131.46 12.398C130.903 11.7273 130.203 11.1907 129.41 10.828C128.52 10.4322 127.554 10.2375 126.58 10.258C125.587 10.2441 124.601 10.4418 123.69 10.838C122.879 11.2006 122.151 11.7245 121.549 12.3778C120.947 13.0311 120.485 13.8002 120.19 14.638C119.879 15.4939 119.72 16.3975 119.72 17.308C119.71 18.3002 119.879 19.2861 120.22 20.218C120.529 21.0648 121.021 21.833 121.66 22.468C122.324 23.1049 123.11 23.6015 123.97 23.928C124.949 24.2884 125.987 24.4647 127.03 24.448C127.794 24.4577 128.556 24.3771 129.3 24.208C129.885 24.0741 130.457 23.8901 131.01 23.658C131.422 23.4874 131.814 23.2728 132.18 23.018L132.86 22.548L131.24 19.978ZM123.74 15.978C123.743 15.6791 123.804 15.3836 123.92 15.108C124.053 14.8123 124.235 14.5417 124.46 14.308C124.714 14.0479 125.016 13.8406 125.35 13.698C125.745 13.5313 126.171 13.4495 126.6 13.458C127.019 13.4473 127.436 13.5292 127.82 13.698C128.141 13.8436 128.43 14.0508 128.67 14.308C128.886 14.5428 129.058 14.8136 129.18 15.108C129.288 15.3855 129.346 15.6802 129.35 15.978H123.74Z" fill="white"/>
<path d="M15.5301 9.26803C18.8556 13.6633 20.6504 19.0265 20.6401 24.538C20.6403 25.901 20.5333 27.2619 20.3201 28.608H29.6001C29.7991 28.6135 29.997 28.5785 30.182 28.5052C30.367 28.4319 30.5352 28.3217 30.6764 28.1815C30.8176 28.0412 30.9288 27.8738 31.0034 27.6893C31.0779 27.5047 31.1143 27.307 31.1101 27.108V1.46803C31.1113 1.24413 31.061 1.02296 30.963 0.821614C30.865 0.620273 30.7221 0.44416 30.5452 0.306895C30.3683 0.169631 30.1622 0.0748902 29.9428 0.0300037C29.7235 -0.0148828 29.4967 -0.00871281 29.2801 0.0480339C23.7919 1.49098 18.9487 4.73853 15.5301 9.26803Z" fill="white" fill-opacity="0.4"/>
<path d="M10.7501 28.608C10.5286 27.2627 10.4182 25.9015 10.4201 24.538C10.4098 19.0265 12.2046 13.6633 15.5301 9.26803C12.1255 4.74191 7.29605 1.49408 1.82011 0.0480311C1.60403 -0.00901272 1.37769 -0.0153382 1.15876 0.0295489C0.939835 0.074436 0.734245 0.169321 0.558048 0.306793C0.38185 0.444266 0.239814 0.620607 0.14303 0.822045C0.0462456 1.02348 -0.00266692 1.24457 0.00011213 1.46803V27.108C-0.00120687 27.3006 0.0355845 27.4915 0.108366 27.6698C0.181147 27.8481 0.288479 28.0102 0.424184 28.1469C0.559889 28.2835 0.721286 28.3919 0.899076 28.4659C1.07687 28.5399 1.26754 28.578 1.46011 28.578L10.7501 28.608Z" fill="white" fill-opacity="0.6"/>
<path d="M15.5301 9.26804C12.2046 13.6633 10.4099 19.0265 10.4201 24.538C10.4182 25.9015 10.5286 27.2627 10.7501 28.608H20.3201C20.5333 27.2619 20.6403 25.901 20.6401 24.538C20.6504 19.0265 18.8556 13.6633 15.5301 9.26804Z" fill="white" fill-opacity="0.8"/>
</svg>
