<svg xmlns="http://www.w3.org/2000/svg" width="178" height="20" fill="none"><path d="M 43.61 0.286 L 41.457 0.286 C 41.346 0.284 41.235 0.303 41.132 0.344 C 41.028 0.384 40.934 0.444 40.854 0.521 C 40.774 0.597 40.71 0.689 40.666 0.79 C 40.623 0.891 40.599 0.999 40.598 1.109 L 40.598 11.553 C 40.598 14.624 38.633 15.625 35.706 15.625 L 34.928 15.625 C 32.045 15.625 30.041 14.584 30.041 11.553 L 30.041 1.111 C 30.04 1.001 30.017 0.893 29.973 0.792 C 29.93 0.691 29.866 0.6 29.787 0.523 C 29.708 0.447 29.614 0.387 29.511 0.346 C 29.407 0.306 29.297 0.286 29.186 0.287 L 27.024 0.287 C 26.91 0.283 26.797 0.3 26.691 0.339 C 26.585 0.379 26.488 0.438 26.405 0.515 C 26.323 0.592 26.257 0.684 26.211 0.786 C 26.165 0.888 26.14 0.999 26.138 1.111 L 26.138 11.645 C 26.138 16.601 29.125 19.22 34.777 19.22 L 35.852 19.22 C 41.508 19.22 44.496 16.601 44.496 11.645 L 44.496 1.111 C 44.494 0.999 44.469 0.888 44.423 0.786 C 44.378 0.683 44.312 0.591 44.229 0.514 C 44.147 0.437 44.049 0.377 43.943 0.338 C 43.837 0.299 43.724 0.281 43.61 0.286 Z" fill="rgb(255,255,255)"></path><path d="M 75.181 0.284 L 57.464 0.284 C 57.352 0.281 57.241 0.301 57.137 0.341 C 57.033 0.382 56.938 0.443 56.859 0.521 C 56.779 0.598 56.716 0.691 56.674 0.794 C 56.632 0.896 56.611 1.006 56.612 1.116 L 56.612 2.878 C 56.61 2.989 56.631 3.098 56.673 3.201 C 56.716 3.303 56.779 3.396 56.858 3.474 C 56.938 3.552 57.033 3.613 57.137 3.653 C 57.241 3.694 57.352 3.713 57.464 3.71 L 64.454 3.71 L 64.454 18.542 C 64.461 18.76 64.555 18.967 64.716 19.117 C 64.876 19.268 65.09 19.35 65.311 19.346 L 67.436 19.346 C 67.658 19.35 67.872 19.268 68.033 19.118 C 68.194 18.967 68.288 18.76 68.295 18.542 L 68.295 3.71 L 75.179 3.71 C 75.292 3.713 75.404 3.694 75.508 3.654 C 75.613 3.614 75.709 3.553 75.789 3.475 C 75.869 3.397 75.933 3.304 75.975 3.202 C 76.018 3.099 76.04 2.989 76.038 2.878 L 76.038 1.119 C 76.04 1.008 76.019 0.898 75.976 0.795 C 75.934 0.692 75.87 0.599 75.79 0.521 C 75.71 0.443 75.615 0.381 75.51 0.341 C 75.405 0.3 75.293 0.281 75.181 0.284 Z" fill="rgb(255,255,255)"></path><path d="M 81.839 0.002 L 79.784 0.002 C 79.671 0 79.559 0.02 79.455 0.062 C 79.35 0.103 79.255 0.165 79.175 0.244 C 79.095 0.322 79.032 0.416 78.989 0.519 C 78.946 0.622 78.925 0.733 78.927 0.844 L 78.927 18.481 C 78.932 18.701 79.025 18.91 79.185 19.063 C 79.346 19.215 79.561 19.299 79.784 19.294 L 81.838 19.294 C 82.068 19.297 82.29 19.21 82.457 19.052 C 82.623 18.895 82.72 18.679 82.728 18.452 L 82.728 0.847 C 82.727 0.734 82.703 0.622 82.657 0.517 C 82.612 0.413 82.546 0.319 82.463 0.24 C 82.38 0.161 82.283 0.1 82.175 0.059 C 82.068 0.018 81.954 -0.002 81.839 0.002 Z" fill="rgb(255,255,255)"></path><path d="M 131.603 7.91 C 128.635 7.247 126.593 7.109 126.593 5.338 C 126.593 4.325 126.628 3.191 129.4 3.191 L 133.301 3.191 C 135.309 3.191 136.389 3.977 136.403 4.979 C 136.413 5.789 137.13 5.88 137.748 5.88 L 139.282 5.88 C 139.728 5.88 140.155 5.616 140.155 4.55 C 140.155 2.579 138.471 1.152 136.4 0.477 C 135.523 0.194 134.605 0.049 133.682 0.046 L 130.386 0.046 C 123.497 0.046 122.614 2.967 122.614 5.509 C 122.614 9.634 127.191 10.23 131.071 11.105 C 134.051 11.776 136.405 12.305 136.405 14.077 C 136.405 14.875 136.05 15.898 133.666 15.898 L 129.125 15.898 C 126.409 15.898 125.934 15.699 125.804 14.465 C 125.72 13.665 125.224 13.409 124.614 13.409 L 123.07 13.409 C 123.06 13.409 122.203 13.423 122.203 14.487 C 122.203 17.29 124.643 19.243 127.704 19.243 L 132.605 19.243 C 139.498 19.243 140.381 16.325 140.381 13.786 C 140.384 9.618 135.497 8.776 131.603 7.91 Z" fill="rgb(255,255,255)"></path><path d="M 176.868 3.421 L 171.069 3.421 C 168.186 3.421 166.718 4.483 166.718 7.57 L 166.718 18.454 C 166.715 18.677 166.623 18.889 166.462 19.045 C 166.302 19.2 166.085 19.287 165.86 19.286 L 163.895 19.286 C 163.781 19.29 163.668 19.271 163.562 19.231 C 163.455 19.191 163.358 19.131 163.276 19.053 C 163.193 18.976 163.127 18.883 163.081 18.78 C 163.035 18.678 163.01 18.567 163.008 18.454 L 163.008 7.719 C 163.008 2.673 165.264 0.009 170.917 0.009 L 176.864 0.009 C 176.962 0.009 177.059 0.028 177.15 0.066 C 177.241 0.103 177.323 0.158 177.393 0.227 C 177.462 0.295 177.517 0.377 177.554 0.467 C 177.592 0.557 177.611 0.653 177.61 0.75 L 177.61 2.651 C 177.614 2.75 177.597 2.848 177.562 2.941 C 177.526 3.034 177.472 3.118 177.403 3.19 C 177.334 3.262 177.251 3.319 177.159 3.359 C 177.067 3.399 176.968 3.42 176.868 3.421 Z" fill="rgb(255,255,255)"></path><path d="M 60.419 16.005 L 54.226 16.005 C 51.279 16.005 51.171 15.183 51.171 11.877 L 51.171 1.065 C 51.168 0.842 51.077 0.63 50.916 0.474 C 50.755 0.318 50.539 0.232 50.313 0.233 L 48.295 0.233 C 48.182 0.23 48.068 0.248 47.962 0.288 C 47.856 0.328 47.759 0.389 47.677 0.466 C 47.594 0.543 47.528 0.636 47.483 0.739 C 47.437 0.842 47.413 0.953 47.411 1.065 L 47.411 14.588 C 47.411 17.753 49.282 19.402 53.741 19.402 L 60.416 19.402 C 60.514 19.402 60.611 19.383 60.702 19.346 C 60.792 19.309 60.874 19.255 60.944 19.186 C 61.013 19.118 61.068 19.037 61.106 18.947 C 61.143 18.858 61.163 18.762 61.163 18.665 L 61.163 16.776 C 61.166 16.677 61.149 16.578 61.114 16.485 C 61.078 16.393 61.024 16.308 60.955 16.236 C 60.885 16.164 60.802 16.107 60.71 16.067 C 60.618 16.028 60.519 16.006 60.419 16.005 Z" fill="rgb(255,255,255)"></path><path d="M 98.513 15.896 L 92.323 15.896 C 89.365 15.896 89.266 15.064 89.266 11.737 L 89.266 0.842 C 89.266 0.618 89.175 0.404 89.015 0.247 C 88.855 0.089 88.638 0 88.412 0 L 86.392 0 C 86.278 -0.003 86.164 0.017 86.057 0.057 C 85.951 0.098 85.853 0.159 85.771 0.238 C 85.688 0.316 85.622 0.41 85.577 0.513 C 85.532 0.617 85.508 0.729 85.506 0.842 L 85.506 14.464 C 85.506 17.652 87.377 19.315 91.836 19.315 L 98.511 19.315 C 98.61 19.315 98.707 19.296 98.798 19.259 C 98.888 19.222 98.971 19.167 99.04 19.098 C 99.11 19.029 99.165 18.948 99.202 18.858 C 99.239 18.768 99.258 18.672 99.258 18.575 L 99.258 16.665 C 99.261 16.566 99.244 16.467 99.208 16.375 C 99.172 16.282 99.118 16.198 99.048 16.126 C 98.979 16.055 98.896 15.997 98.804 15.958 C 98.712 15.918 98.613 15.897 98.513 15.896 Z" fill="rgb(255,255,255)"></path><path d="M 111.905 0.135 L 111.905 0.128 L 109.709 0.128 L 109.709 0.135 C 105.113 0.225 102.029 2.824 102.029 6.56 L 102.029 18.514 C 102.029 19.315 102.497 19.315 102.649 19.315 L 104.953 19.315 C 105.616 19.315 105.819 19.122 105.819 18.483 L 105.819 13.527 L 115.679 13.527 L 115.679 18.485 C 115.679 19.123 115.883 19.317 116.545 19.317 L 118.871 19.317 C 119.025 19.317 119.49 19.317 119.49 18.515 L 119.49 6.56 C 119.488 2.62 116.501 0.229 111.905 0.135 Z M 111.905 10.062 L 105.899 10.062 L 105.899 6.855 C 105.899 4.132 107.765 3.416 109.62 3.416 L 111.981 3.416 C 113.838 3.416 115.577 4.525 115.577 6.855 L 115.577 10.062 Z" fill="rgb(255,255,255)"></path><path d="M 149.035 3.423 L 159.3 3.423 C 159.745 3.423 160.104 2.983 160.104 2.527 L 160.104 0.864 C 160.106 0.758 160.087 0.652 160.047 0.554 C 160.008 0.455 159.949 0.365 159.875 0.288 C 159.8 0.212 159.711 0.151 159.612 0.109 C 159.514 0.066 159.408 0.044 159.3 0.042 L 147.171 0.042 C 143.31 0.052 142.911 3.369 142.911 6.129 L 142.903 9.555 L 142.903 9.705 L 142.911 13.126 C 142.911 15.886 143.309 19.207 147.171 19.214 L 159.3 19.214 C 159.408 19.212 159.514 19.189 159.612 19.147 C 159.711 19.105 159.8 19.044 159.875 18.968 C 159.949 18.891 160.008 18.801 160.047 18.702 C 160.087 18.604 160.106 18.498 160.104 18.392 L 160.104 16.634 C 160.104 16.183 159.745 15.742 159.3 15.742 L 149.038 15.742 C 146.354 15.742 146.671 13.801 146.671 13.801 L 146.671 11.327 L 159.074 11.327 C 159.29 11.32 159.495 11.23 159.645 11.077 C 159.795 10.923 159.879 10.718 159.878 10.505 L 159.878 8.854 C 159.879 8.64 159.796 8.435 159.645 8.282 C 159.495 8.129 159.29 8.039 159.074 8.033 L 146.669 8.033 L 146.669 5.677 C 146.669 5.677 146.351 3.423 149.035 3.423 Z" fill="rgb(255,255,255)"></path><path d="M 22.718 0.286 L 17.732 0.286 C 16.993 0.286 16.538 0.574 16.34 1.172 L 11.678 14.645 L 7.019 1.173 C 6.822 0.574 6.368 0.287 5.626 0.287 L 0.64 0.287 C 0.464 0.294 0.298 0.37 0.178 0.498 C 0.058 0.625 -0.006 0.795 0 0.969 L 0 18.679 C -0.002 18.767 0.014 18.855 0.047 18.937 C 0.079 19.019 0.128 19.094 0.19 19.157 C 0.252 19.221 0.327 19.271 0.409 19.306 C 0.491 19.341 0.579 19.359 0.669 19.36 L 3.09 19.36 C 3.179 19.359 3.267 19.341 3.349 19.306 C 3.432 19.272 3.506 19.221 3.568 19.158 C 3.63 19.094 3.679 19.019 3.712 18.937 C 3.744 18.855 3.76 18.767 3.758 18.679 L 3.758 5.569 C 3.742 5.23 4.002 5.099 4.152 5.416 L 8.939 17.711 C 9.149 18.251 9.533 18.511 10.11 18.511 L 13.243 18.511 C 13.825 18.511 14.207 18.251 14.416 17.711 L 19.206 5.416 C 19.356 5.099 19.617 5.23 19.6 5.569 L 19.6 18.679 C 19.598 18.767 19.614 18.855 19.647 18.937 C 19.679 19.019 19.728 19.094 19.79 19.157 C 19.852 19.221 19.927 19.271 20.009 19.306 C 20.091 19.341 20.179 19.359 20.268 19.36 L 22.687 19.36 C 22.776 19.359 22.864 19.341 22.947 19.306 C 23.029 19.272 23.103 19.221 23.166 19.158 C 23.228 19.094 23.276 19.019 23.309 18.937 C 23.341 18.855 23.357 18.767 23.355 18.679 L 23.355 0.968 C 23.361 0.794 23.298 0.625 23.179 0.497 C 23.059 0.369 22.893 0.293 22.718 0.286 Z" fill="rgb(255,255,255)"></path></svg>
