<svg width="165" height="32" viewBox="0 0 165 32" fill="none" xmlns="http://www.w3.org/2000/svg">
<path d="M30.1024 16.3457L22.3534 16.7854C18.8146 16.9677 16.8001 19.0481 16.6189 22.5977L16.1712 30.4047C16.1393 31.1768 16.8747 31.4449 17.461 30.8122L30.5075 17.6433C31.0937 17.0106 30.8805 16.3135 30.1024 16.3457Z" fill="#828282"/>
<path d="M17.461 0.356409C16.8747 -0.276299 16.1393 -0.0189261 16.1712 0.753192L16.6189 8.57089C16.7895 12.1205 18.8146 14.2009 22.3534 14.3832L30.1024 14.8229C30.8805 14.8551 31.0937 14.158 30.5075 13.5253L17.461 0.356409Z" fill="#828282"/>
<path d="M14.2313 22.5977C14.0501 19.0374 12.0249 16.9677 8.49683 16.7854L0.737136 16.3457C-0.0303059 16.3135 -0.254143 17.0427 0.332097 17.6433L13.3786 30.8122C13.9755 31.4449 14.7003 31.1768 14.6683 30.4047L14.2313 22.5977Z" fill="#828282"/>
<path d="M13.3786 0.356412L0.332097 13.536C-0.254143 14.1258 -0.0303059 14.8658 0.737136 14.8229L8.49683 14.3832C12.0249 14.2009 14.0395 12.1205 14.2313 8.57089L14.6683 0.763918C14.7003 -0.0081996 13.9755 -0.265572 13.3786 0.356412Z" fill="#828282"/>
<path d="M129.774 5.06418H126.288L122.505 9.23576H125.553L129.774 5.06418Z" fill="white"/>
<path fill-rule="evenodd" clip-rule="evenodd" d="M145.443 5.06418H148.193V26.1044H145.443V23.6379C144.259 25.2465 142.522 26.4047 140.188 26.4047C136.18 26.4047 133.11 23.4878 133.11 18.7478C133.11 14.3189 136.372 11.0695 140.188 11.0695C142.33 11.0695 144.259 12.0454 145.443 13.9757V5.06418ZM145.443 16.9355C144.782 15.0374 143.044 13.5039 140.742 13.5039C138.003 13.5039 135.924 15.3376 135.924 18.7693C135.924 22.0079 138.067 23.9811 140.742 23.9811C143.034 23.9811 144.739 22.6084 145.443 20.6996V16.9355Z" fill="white"/>
<path fill-rule="evenodd" clip-rule="evenodd" d="M164.863 18.0829C164.863 18.5333 164.82 18.9837 164.746 19.4341H153.213C153.49 22.3939 155.547 23.9811 158.009 23.9811C159.853 23.9811 161.452 23.0803 162.262 21.7719L164.341 23.1982C163.232 25.1714 160.823 26.4047 157.935 26.4047C153.49 26.4047 150.452 23.4556 150.452 18.7478C150.452 14.351 153.671 11.0695 157.743 11.0695C162.081 11.0695 164.863 14.0508 164.863 18.0829ZM162.06 17.0963C161.879 14.898 160.12 13.4824 157.764 13.4824C155.398 13.4824 153.884 14.9623 153.383 17.0963H162.06Z" fill="white"/>
<path d="M128.218 20.0561C128.218 22.898 126.694 23.9811 124.476 23.9811C122.259 23.9811 120.735 22.78 120.735 20.0561V11.3698H117.985V19.8417C117.985 24.3564 120.543 26.4047 124.476 26.4047C128.399 26.4047 130.957 24.1955 130.957 19.8417V11.3698H128.218V20.0561Z" fill="white"/>
<path d="M93.3844 17.4073C91.274 16.8497 90.1228 16.5173 90.1228 15.284C90.1228 14.2009 91.1247 13.4931 92.7982 13.4931C94.461 13.4931 95.9745 14.0829 97.0511 15.0588L98.3088 12.8926C97.0511 11.7022 94.9406 11.0695 92.9368 11.0695C89.6432 11.0695 87.3835 12.8604 87.3835 15.5414C87.3835 18.4904 90.0482 19.3162 92.3825 19.8738C94.1945 20.3242 95.836 20.8497 95.836 22.1151C95.836 23.2626 94.7914 23.9811 92.9048 23.9811C91.1247 23.9811 89.3873 23.2304 88.1189 22.158L86.8612 24.3135C88.3108 25.5789 90.7197 26.4047 93.054 26.4047C96.3902 26.4047 98.6073 24.5816 98.6073 21.9328C98.6073 19.1339 96.3156 18.2009 93.3844 17.4181V17.4073Z" fill="white"/>
<path fill-rule="evenodd" clip-rule="evenodd" d="M112.432 11.3698H115.171V26.1044H112.432V23.6379C111.238 25.2465 109.501 26.4047 107.166 26.4047C103.159 26.4047 100.089 23.4878 100.089 18.7478C100.089 14.3189 103.35 11.0695 107.166 11.0695C109.319 11.0695 111.238 12.0454 112.432 13.9757V11.3698ZM112.432 16.9248C111.76 15.0374 110.023 13.5039 107.721 13.5039C104.981 13.5039 102.903 15.3376 102.903 18.7585C102.903 22.0079 105.056 23.9811 107.721 23.9811C110.012 23.9811 111.728 22.6084 112.432 20.6996V16.9248Z" fill="white"/>
<path fill-rule="evenodd" clip-rule="evenodd" d="M52.8166 18.276C56.7711 18.8336 57.6557 22.0722 58.711 26.1044H53.1044C52.2623 23.0374 51.4949 19.6379 47.4978 19.6379H40.8999V26.1044H35.8689V5.06418H49.2885C54.053 5.06418 57.8263 7.09099 57.8263 11.8953C57.8263 14.8765 55.8544 17.2036 52.8059 17.5789V18.276H52.8166ZM52.6994 12.335C52.6994 10.1902 51.0046 9.3001 48.9581 9.3001H40.8999V15.402H48.9581C51.1538 15.402 52.6994 14.2974 52.6994 12.335Z" fill="white"/>
<path fill-rule="evenodd" clip-rule="evenodd" d="M83.8447 15.5843C83.8447 22.5977 78.3447 26.1044 71.4164 26.1044H61.3437V5.06418H71.4164C78.6431 5.06418 83.8447 9.08563 83.8447 15.5843ZM78.7178 15.5843C78.7178 11.7344 75.7119 9.3001 71.4164 9.3001H66.3641V21.8577H71.4164C75.4135 21.8577 78.7178 19.8309 78.7178 15.5843Z" fill="white"/>
</svg>
