<svg preserveAspectRatio="none" width="100%" height="100%" overflow="visible" style="display: block;" viewBox="0 0 77.6124 13.3812" fill="none" xmlns="http://www.w3.org/2000/svg">
<g id="icons-right">
<g id="battery">
<path id="outline" opacity="0.35" d="M53.5248 0.542969H71.0238C72.9976 0.54317 74.598 2.14334 74.5981 4.11719V9.26367C74.5981 11.2376 72.9977 12.8377 71.0238 12.8379H53.5248C51.5508 12.8378 49.9506 11.2377 49.9506 9.26367V4.11719C49.9507 2.14325 51.5509 0.54303 53.5248 0.542969Z" stroke="var(--stroke-0, white)" stroke-width="1.08603"/>
<path id="end" opacity="0.4" d="M76.1701 5.14663V9.49074C77.044 9.12282 77.6124 8.26693 77.6124 7.31868C77.6124 6.37044 77.044 5.51455 76.1701 5.14663" fill="var(--fill-0, white)"/>
<path id="charged" d="M51.4663 4.1173C51.4663 2.98034 52.388 2.05865 53.5249 2.05865H71.0235C72.1604 2.05865 73.0821 2.98034 73.0821 4.1173V9.26393C73.0821 10.4009 72.1604 11.3226 71.0235 11.3226H53.5249C52.388 11.3226 51.4663 10.4009 51.4663 9.26393V4.1173Z" fill="var(--fill-0, white)"/>
</g>
<path id="wi-fi" fill-rule="evenodd" clip-rule="evenodd" d="M34.4829 2.66341C37.0218 2.66352 39.4636 3.6593 41.3036 5.44495C41.4422 5.5828 41.6636 5.58106 41.8001 5.44105L43.1246 4.07659C43.1937 4.00558 43.2322 3.90938 43.2317 3.80929C43.2311 3.7092 43.1915 3.61347 43.1216 3.54329C38.2921 -1.1811 30.6729 -1.1811 25.8434 3.54329C25.7735 3.61342 25.7338 3.70912 25.7331 3.80921C25.7325 3.9093 25.771 4.00552 25.84 4.07659L27.1649 5.44105C27.3013 5.58128 27.5229 5.58302 27.6614 5.44495C29.5017 3.65919 31.9437 2.6634 34.4829 2.66341ZM34.5194 6.86802C35.9143 6.86794 37.2595 7.39719 38.2935 8.35294C38.4334 8.48858 38.6537 8.48564 38.79 8.34631L40.113 6.98186C40.1827 6.91029 40.2213 6.8132 40.2203 6.71231C40.2193 6.61142 40.1787 6.51515 40.1076 6.44504C36.9589 3.45527 32.0826 3.45527 28.9338 6.44504C28.8626 6.51515 28.8221 6.61147 28.8211 6.71239C28.8202 6.81331 28.859 6.91039 28.9288 6.98186L30.2514 8.34631C30.3877 8.48564 30.608 8.48858 30.7479 8.35294C31.7812 7.39782 33.1253 6.86861 34.5194 6.86802ZM37.2097 9.61665C37.2117 9.71783 37.1727 9.81537 37.102 9.88625L34.8135 12.2436C34.7464 12.3129 34.6549 12.3519 34.5595 12.3519C34.4641 12.3519 34.3726 12.3129 34.3055 12.2436L32.0167 9.88625C31.946 9.81531 31.9071 9.71774 31.9092 9.61657C31.9113 9.5154 31.9542 9.41959 32.0278 9.35177C33.4893 8.08998 35.6298 8.08998 37.0913 9.35177C37.1648 9.41964 37.2076 9.51548 37.2097 9.61665Z" fill="var(--fill-0, white)"/>
<g id="signal">
<path d="M10.2933 3.08798C10.2933 2.5195 10.7541 2.05865 11.3226 2.05865H12.3519C12.9204 2.05865 13.3812 2.5195 13.3812 3.08798V11.3226C13.3812 11.8911 12.9204 12.3519 12.3519 12.3519H11.3226C10.7541 12.3519 10.2933 11.8911 10.2933 11.3226V3.08798Z" fill="var(--fill-0, white)"/>
<path d="M15.4399 1.02933C15.4399 0.460845 15.9007 0 16.4692 0H17.4985C18.067 0 18.5279 0.460845 18.5279 1.02933V11.3226C18.5279 11.8911 18.067 12.3519 17.4985 12.3519H16.4692C15.9007 12.3519 15.4399 11.8911 15.4399 11.3226V1.02933Z" fill="var(--fill-0, white)"/>
<path d="M5.14663 6.69062C5.14663 6.12213 5.60747 5.66129 6.17595 5.66129H7.20528C7.77376 5.66129 8.2346 6.12213 8.2346 6.69062V11.3226C8.2346 11.8911 7.77376 12.3519 7.20528 12.3519H6.17595C5.60747 12.3519 5.14663 11.8911 5.14663 11.3226V6.69062Z" fill="var(--fill-0, white)"/>
<path d="M0 9.26393C0 8.69545 0.460845 8.2346 1.02933 8.2346H2.05865C2.62713 8.2346 3.08798 8.69545 3.08798 9.26393V11.3226C3.08798 11.8911 2.62713 12.3519 2.05865 12.3519H1.02933C0.460845 12.3519 0 11.8911 0 11.3226V9.26393Z" fill="var(--fill-0, white)"/>
</g>
</g>
</svg>
